<?xml version="1.0" encoding="UTF-8"?>
<svg width="105" height="30" viewBox="0 0 105 30" fill="none" xmlns="http://www.w3.org/2000/svg">
<g clip-path="url(#clip0_3774_75)">
<path d="M4.39166 15.9064C3.52492 15.9064 2.76195 15.7172 2.10275 15.3388C1.44354 14.9481 0.930823 14.411 0.564598 13.7274C0.198372 13.0315 0.0152588 12.2319 0.0152588 11.3286C0.0152588 10.4252 0.283824 9.28993 0.820956 8.47202C1.37029 7.65412 2.14547 7.02543 3.14649 6.58596C4.15971 6.14649 5.34384 5.92675 6.69888 5.92675C8.05392 5.92675 7.82808 5.96948 8.21872 6.05493V5.6704C8.21872 4.74262 8.04781 4.0529 7.706 3.60122C7.36419 3.13733 6.84537 2.90539 6.14954 2.90539C5.02645 2.90539 4.3062 3.49746 3.98881 4.68159C3.89115 5.0234 3.68972 5.16989 3.38454 5.12106L0.894201 4.68159C0.711088 4.64496 0.582909 4.56562 0.509664 4.44354C0.448626 4.32146 0.442522 4.15666 0.491352 3.94913C0.808748 2.70397 1.48016 1.73957 2.50559 1.05595C3.54323 0.360122 4.84334 0.012207 6.4059 0.012207C7.96846 0.012207 9.67141 0.512716 10.6358 1.51373C11.6124 2.51475 12.1007 3.97355 12.1007 5.89013V15.1007C12.1007 15.235 12.0519 15.351 11.9542 15.4486C11.8566 15.5463 11.7589 15.5768 11.6246 15.5768H9.24415C8.95117 15.5768 8.76806 15.4181 8.69481 15.1007L8.32859 13.3795H8.1821C7.85249 14.1851 7.35809 14.8077 6.69888 15.2472C6.05188 15.6867 5.28281 15.9064 4.39166 15.9064ZM4.00712 10.8891C4.00712 11.5361 4.17192 12.0549 4.50153 12.4456C4.84334 12.824 5.30112 13.0132 5.87487 13.0132C6.44863 13.0132 7.2116 12.6775 7.61445 12.0061C8.01729 11.3225 8.21872 10.3459 8.21872 9.0763V8.1058C7.87691 8.04476 7.55341 8.01424 7.24822 8.01424C6.2472 8.01424 5.45371 8.2767 4.86775 8.80163C4.294 9.31434 4.00712 10.0102 4.00712 10.8891ZM14.3713 0.817904C14.3713 0.683621 14.414 0.573753 14.4995 0.488301C14.5972 0.39064 14.7131 0.34181 14.8474 0.34181H17.2645C17.3988 0.34181 17.5086 0.384537 17.5941 0.469989C17.6918 0.555442 17.7528 0.671414 17.7772 0.817904L18.1434 2.61241H18.2899C18.6195 1.77009 19.0895 1.1292 19.6999 0.689725C20.3225 0.238046 21.0549 0.012207 21.8973 0.012207C22.7396 0.012207 23.5758 0.250254 24.2228 0.726347C24.882 1.20244 25.3886 1.87996 25.7426 2.7589H25.8891C26.4262 1.83113 27.0305 1.1414 27.7019 0.689725C28.3733 0.238046 29.1241 0.012207 29.9542 0.012207C30.7843 0.012207 31.6389 0.256358 32.2981 0.744659C32.9695 1.23296 33.4822 1.92879 33.8362 2.83215C34.1902 3.7355 34.3672 4.80366 34.3672 6.03662V15.1007C34.3672 15.235 34.3184 15.351 34.2208 15.4486C34.1353 15.5341 34.0254 15.5768 33.8911 15.5768H30.9613C30.8271 15.5768 30.7111 15.5341 30.6134 15.4486C30.528 15.351 30.4852 15.235 30.4852 15.1007V6.3296C30.4852 5.43845 30.3143 4.75483 29.9725 4.27874C29.6307 3.80264 29.1363 3.5646 28.4893 3.5646C27.8423 3.5646 27.238 3.84537 26.8596 4.40692C26.4934 4.96846 26.3103 5.78026 26.3103 6.84232V15.1007C26.3103 15.235 26.2614 15.351 26.1638 15.4486C26.0783 15.5341 25.9685 15.5768 25.8342 15.5768H22.9044C22.7701 15.5768 22.6541 15.5341 22.5565 15.4486C22.471 15.351 22.4283 15.235 22.4283 15.1007V6.3296C22.4283 5.43845 22.2574 4.75483 21.9156 4.27874C21.5738 3.80264 21.0793 3.5646 20.4323 3.5646C19.7854 3.5646 19.1811 3.84537 18.8026 4.40692C18.4364 4.96846 18.2533 5.78026 18.2533 6.84232V15.1007C18.2533 15.235 18.2045 15.351 18.1068 15.4486C18.0214 15.5341 17.9115 15.5768 17.7772 15.5768H14.8474C14.7131 15.5768 14.5972 15.5341 14.4995 15.4486C14.414 15.351 14.3713 15.235 14.3713 15.1007V0.817904ZM36.2716 11.3286C36.2716 10.2421 36.5402 9.28993 37.0773 8.47202C37.6267 7.65412 38.4018 7.02543 39.4028 6.58596C40.4161 6.14649 41.6002 5.92675 42.9552 5.92675C44.3103 5.92675 44.0844 5.96948 44.4751 6.05493V5.6704C44.4751 4.74262 44.3042 4.0529 43.9624 3.60122C43.6205 3.13733 43.1017 2.90539 42.4059 2.90539C41.2828 2.90539 40.5626 3.49746 40.2452 4.68159C40.1475 5.0234 39.9461 5.16989 39.6409 5.12106L37.1506 4.68159C36.9674 4.64496 36.8393 4.56562 36.766 4.44354C36.705 4.32146 36.6989 4.15666 36.7477 3.94913C37.0651 2.70397 37.7365 1.73957 38.762 1.05595C39.7996 0.360122 41.0997 0.012207 42.6623 0.012207C44.2248 0.012207 45.9278 0.512716 46.8922 1.51373C47.8688 2.51475 48.3571 3.97355 48.3571 5.89013V15.1007C48.3571 15.235 48.3082 15.351 48.2106 15.4486C48.1251 15.5341 48.0153 15.5768 47.881 15.5768H45.5005C45.2075 15.5768 45.0244 15.4181 44.9512 15.1007L44.5849 13.3795H44.4385C44.1088 14.1851 43.6144 14.8077 42.9552 15.2472C42.3082 15.6867 41.5392 15.9064 40.648 15.9064C39.7569 15.9064 39.0183 15.7172 38.3591 15.3388C37.6999 14.9481 37.1872 14.411 36.821 13.7274C36.4547 13.0315 36.2716 12.2319 36.2716 11.3286ZM40.2635 10.8891C40.2635 11.5361 40.4283 12.0549 40.7579 12.4456C41.0997 12.824 41.5575 13.0132 42.1312 13.0132C42.705 13.0132 43.468 12.6775 43.8708 12.0061C44.2737 11.3225 44.4751 10.3459 44.4751 9.0763V8.1058C44.1333 8.04476 43.8098 8.01424 43.5046 8.01424C42.5036 8.01424 41.7101 8.2767 41.1241 8.80163C40.5504 9.31434 40.2635 10.0102 40.2635 10.8891ZM50.3347 12.885C50.3347 12.6165 50.4079 12.3845 50.5544 12.1892L56.8169 3.41811H50.9573C50.823 3.41811 50.707 3.37538 50.6094 3.28993C50.5239 3.19227 50.4812 3.0763 50.4812 2.94201V0.817904C50.4812 0.683621 50.5239 0.573753 50.6094 0.488301C50.707 0.39064 50.823 0.34181 50.9573 0.34181H60.589C60.7233 0.34181 60.8332 0.39064 60.9186 0.488301C61.0163 0.573753 61.0651 0.683621 61.0651 0.817904V3.03357C61.0651 3.30214 60.9919 3.53408 60.8454 3.7294L55.1689 11.53C55.5107 11.469 55.8586 11.4385 56.2126 11.4385C57.0916 11.4385 57.8973 11.5178 58.6297 11.6765C59.3744 11.823 60.1434 12.0671 60.9369 12.409C61.2177 12.531 61.3581 12.7386 61.3581 13.0315V15.1373C61.3581 15.3327 61.2971 15.4669 61.175 15.5402C61.0529 15.6012 60.9003 15.5951 60.7172 15.5219C59.8016 15.1801 58.9898 14.942 58.2818 14.8077C57.586 14.6612 56.823 14.588 55.9929 14.588C55.1628 14.588 54.3693 14.6612 53.5758 14.8077C52.7945 14.9542 51.9278 15.1923 50.9756 15.5219C50.7925 15.5829 50.6399 15.5829 50.5178 15.5219C50.3957 15.4486 50.3347 15.3204 50.3347 15.1373V12.885ZM62.1638 7.95931C62.1638 6.46999 62.4507 5.12106 63.0244 3.91251C63.5982 2.69176 64.3856 1.73957 65.3866 1.05595C66.3998 0.360122 67.5229 0.012207 68.7558 0.012207C69.9888 0.012207 71.1241 0.360122 72.1251 1.05595C73.1384 1.73957 73.9318 2.69176 74.5056 3.91251C75.0916 5.12106 75.3845 6.46999 75.3845 7.95931C75.3845 9.44863 75.0916 10.8037 74.5056 12.0244C73.9318 13.233 73.1384 14.1851 72.1251 14.881C71.1241 15.5646 70.001 15.9064 68.7558 15.9064C67.5107 15.9064 66.3998 15.5646 65.3866 14.881C64.3856 14.1851 63.5982 13.233 63.0244 12.0244C62.4507 10.8037 62.1638 9.44863 62.1638 7.95931ZM66.1923 7.95931C66.1923 9.50966 66.412 10.706 66.8515 11.5483C67.2909 12.3784 67.9257 12.7935 68.7558 12.7935C69.586 12.7935 70.2269 12.3784 70.6785 11.5483C71.1302 10.706 71.3561 9.50966 71.3561 7.95931C71.3561 6.40895 71.1302 5.21872 70.6785 4.38861C70.2269 3.54629 69.586 3.12513 68.7558 3.12513C67.9257 3.12513 67.2909 3.54629 66.8515 4.38861C66.412 5.21872 66.1923 6.40895 66.1923 7.95931ZM77.3622 0.817904C77.3622 0.683621 77.4049 0.573753 77.4903 0.488301C77.588 0.39064 77.704 0.34181 77.8383 0.34181H80.2553C80.3896 0.34181 80.4995 0.384537 80.5849 0.469989C80.6826 0.555442 80.7436 0.671414 80.7681 0.817904L81.1343 2.61241H81.2808C81.6104 1.7823 82.0926 1.1414 82.7274 0.689725C83.3744 0.238046 84.1312 0.012207 84.998 0.012207C85.8647 0.012207 86.7253 0.256358 87.3967 0.744659C88.0804 1.23296 88.6053 1.92879 88.9715 2.83215C89.3377 3.7355 89.5209 4.80366 89.5209 6.03662V15.1007C89.5209 15.235 89.472 15.351 89.3744 15.4486C89.2889 15.5341 89.179 15.5768 89.0448 15.5768H86.115C85.9807 15.5768 85.8647 15.5341 85.767 15.4486C85.6816 15.351 85.6389 15.235 85.6389 15.1007V6.3296C85.6389 5.43845 85.4558 4.75483 85.0895 4.27874C84.7233 3.80264 84.2045 3.5646 83.5331 3.5646C82.8617 3.5646 82.2208 3.84537 81.8301 4.40692C81.4395 4.96846 81.2442 5.78026 81.2442 6.84232V15.1007C81.2442 15.235 81.1953 15.351 81.0977 15.4486C81.0122 15.5341 80.9023 15.5768 80.7681 15.5768H77.8383C77.704 15.5768 77.588 15.5341 77.4903 15.4486C77.4049 15.351 77.3622 15.235 77.3622 15.1007V0.817904Z" fill="#161D26"/>
<path d="M10.1963 17.6827C9.96436 17.8658 9.91552 18.171 10.0498 18.5982C10.1719 18.9767 10.4588 19.4466 10.9104 20.0082C12.7294 22.2544 14.8962 24.1221 17.4109 25.6114C19.9257 27.1008 22.6175 28.1994 25.4862 28.9075C28.3672 29.6277 31.3092 29.9878 34.3123 29.9878C37.3153 29.9878 41.8199 29.4263 45.299 28.3032C48.7782 27.1923 51.6836 25.6298 54.0152 23.6155C54.8331 22.8953 55.2421 22.3215 55.2421 21.8943C55.2421 21.467 55.1749 21.5769 55.0407 21.4182C54.8575 21.235 54.6378 21.174 54.3814 21.235C54.1251 21.2961 53.765 21.4487 53.3011 21.6928C51.0671 22.8647 48.3448 23.7986 45.1342 24.4945C41.9359 25.2025 38.5971 25.5565 35.118 25.5565C31.6388 25.5565 26.6459 24.9705 22.6297 23.7986C18.6134 22.6267 15.0549 20.7956 11.9542 18.3052C11.5025 17.9512 11.1363 17.7254 10.8555 17.6277C10.5869 17.5301 10.3672 17.5484 10.1963 17.6827Z" fill="#161D26"/>
<path d="M50.884 18.5982C50.6277 18.8424 50.5605 19.0987 50.6826 19.3673C50.7681 19.5626 50.9329 19.6725 51.177 19.6969C51.4212 19.7335 51.7691 19.7091 52.2208 19.6237C52.9532 19.465 53.7162 19.3551 54.5097 19.2941C55.3032 19.2452 55.9929 19.2574 56.5788 19.3307C57.1648 19.4161 57.531 19.5626 57.6775 19.7701C57.8973 20.0997 57.8179 20.7956 57.4395 21.8576C57.0732 22.9197 56.5727 23.9512 55.9379 24.9522C55.6938 25.3551 55.5473 25.6725 55.4985 25.9044C55.4496 26.1364 55.5107 26.3317 55.6816 26.4904C55.7915 26.6003 55.9135 26.6552 56.0478 26.6552C56.4018 26.6552 56.9145 26.3439 57.586 25.7213C58.7945 24.6715 59.6429 23.4263 60.1312 21.9858C60.3998 21.2412 60.5646 20.4599 60.6256 19.642C60.6867 18.8241 60.5951 18.2381 60.351 17.8841C60.119 17.5423 59.6063 17.2615 58.8128 17.0418C58.0315 16.822 57.2441 16.7122 56.4507 16.7122C54.9003 16.7122 53.4293 17.0784 52.0376 17.8108C51.5249 18.0916 51.1404 18.3541 50.884 18.5982Z" fill="#161D26"/>
<path d="M98.3683 15.5769C98.3073 15.5769 98.2523 15.5524 98.2035 15.5036C98.1547 15.4548 98.1302 15.3998 98.1302 15.3388V8.1974C98.1302 8.12416 98.1516 8.06617 98.1943 8.02345C98.2432 7.98072 98.3012 7.95936 98.3683 7.95936H99.5768C99.6501 7.95936 99.7081 7.98072 99.7508 8.02345C99.7935 8.06617 99.821 8.12416 99.8332 8.1974L100.016 9.09466H100.09C100.254 8.66739 100.495 8.34084 100.813 8.115C101.136 7.88916 101.518 7.77625 101.957 7.77625C102.397 7.77625 102.812 7.89832 103.148 8.14247C103.489 8.38662 103.752 8.73759 103.935 9.19537C104.118 9.64705 104.21 10.1811 104.21 10.7976V15.3388C104.21 15.406 104.188 15.4639 104.146 15.5128C104.103 15.5555 104.045 15.5769 103.972 15.5769H102.507C102.446 15.5769 102.391 15.5524 102.342 15.5036C102.293 15.4548 102.269 15.3998 102.269 15.3388V10.9441C102.269 10.4924 102.177 10.1476 101.994 9.90951C101.817 9.67146 101.561 9.55244 101.225 9.55244C100.889 9.55244 100.56 9.69283 100.364 9.9736C100.169 10.2544 100.071 10.6633 100.071 11.2005V15.3388C100.071 15.406 100.05 15.4639 100.007 15.5128C99.9644 15.5555 99.9064 15.5769 99.8332 15.5769H98.3683Z" fill="#161D26"/>
<path d="M95.2035 15.5768C95.1303 15.5768 95.0723 15.5555 95.0296 15.5128C94.9868 15.47 94.9655 15.412 94.9655 15.3388V8.19739C94.9655 8.12415 94.9868 8.06616 95.0296 8.02343C95.0723 7.98071 95.1303 7.95934 95.2035 7.95934H96.6684C96.8271 7.95934 96.9065 8.03869 96.9065 8.19739V15.3388C96.9065 15.412 96.8851 15.47 96.8424 15.5128C96.7996 15.5555 96.7417 15.5768 96.6684 15.5768H95.2035ZM95.936 7.36423C95.6186 7.36423 95.35 7.26046 95.1303 7.05294C94.9105 6.84541 94.8007 6.57074 94.8007 6.22893C94.8007 5.88712 94.9075 5.60634 95.1211 5.40492C95.3408 5.19739 95.6125 5.09363 95.936 5.09363C96.2595 5.09363 96.528 5.19739 96.7417 5.40492C96.9614 5.60634 97.0713 5.88101 97.0713 6.22893C97.0713 6.57684 96.9614 6.84541 96.7417 7.05294C96.5219 7.26046 96.2534 7.36423 95.936 7.36423Z" fill="#161D26"/>
<path d="M92.2889 15.6866C91.9593 15.6866 91.6846 15.5798 91.4649 15.3662C91.2451 15.1464 91.1353 14.8626 91.1353 14.5147C91.1353 14.1668 91.2451 13.8769 91.4649 13.6632C91.6846 13.4496 91.9593 13.3428 92.2889 13.3428C92.6185 13.3428 92.8931 13.4496 93.1129 13.6632C93.3326 13.8769 93.4425 14.1607 93.4425 14.5147C93.4425 14.8687 93.3326 15.1464 93.1129 15.3662C92.8931 15.5798 92.6185 15.6866 92.2889 15.6866Z" fill="#161D26"/>
</g>
<defs>
<clipPath id="clip0_3774_75">
<rect width="104.222" height="30" fill="white"/>
</clipPath>
</defs>
</svg>
