<?xml version="1.0" encoding="utf-8"?>
<!-- Generator: Adobe Illustrator 16.0.0, SVG Export Plug-In . SVG Version: 6.00 Build 0)  -->
<!DOCTYPE svg PUBLIC "-//W3C//DTD SVG 1.1//EN" "http://www.w3.org/Graphics/SVG/1.1/DTD/svg11.dtd">
<svg version="1.1" id="Layer_1" xmlns="http://www.w3.org/2000/svg" xmlns:xlink="http://www.w3.org/1999/xlink" x="0px" y="0px"
	 width="892.31px" height="251.399px" viewBox="33.964 154.3 892.31 251.399" enable-background="new 33.964 154.3 892.31 251.399"
	 xml:space="preserve">
<g>
	<g>
		<path fill="#00558A" d="M179.748,290.779h-1.551c-2.327-6.979-7.6-10.547-15.664-10.547c-5.273,0-9.305,1.706-11.787,4.963
			c-1.706,2.326-2.637,4.963-2.637,8.064c0,3.877,1.396,7.135,4.342,9.615c1.861,1.551,4.808,3.103,8.84,4.653
			c6.514,2.481,10.546,4.188,12.252,4.963c2.171,0.931,4.188,2.326,6.048,3.877c4.188,3.412,6.359,8.22,6.359,14.424
			c0,6.668-2.171,12.252-6.669,16.904c-5.118,5.428-12.252,8.22-21.557,8.22c-8.22,0-15.044-2.017-20.472-6.203
			c1.086-3.723,1.861-7.29,2.017-10.547h1.396c3.722,7.755,10.081,11.632,18.766,11.632c5.428,0,9.771-1.551,12.717-4.808
			c2.637-2.637,3.877-6.049,3.877-10.081c0-4.188-1.396-7.444-4.188-10.08c-1.861-1.861-5.118-3.567-9.771-5.584
			c-9.46-3.877-15.354-6.823-17.68-8.84c-3.722-3.257-5.583-7.909-5.583-13.958c0-6.979,2.481-12.406,7.599-16.284
			c4.653-3.722,10.391-5.583,17.525-5.583c7.6,0,13.958,1.706,19.076,5.117C181.144,284.266,180.058,287.677,179.748,290.779"/>
		<path fill="#00558A" d="M106.546,313.267c0,13.493-4.342,23.884-12.872,31.173c-7.754,6.669-17.68,9.926-29.777,9.926
			c-0.155,0-2.947,0-8.22-0.155s-8.53-0.155-9.615-0.155c-2.327,0-6.359,0.155-12.097,0.466c0.931-13.027,1.396-27.916,1.396-44.977
			c0-11.321-0.31-22.333-0.931-33.034c6.204,0.155,12.407,0.311,18.456,0.311c11.787,0,20.006,0.31,24.349,1.085
			c6.668,1.085,12.252,3.566,17.06,7.289C102.358,291.398,106.546,300.859,106.546,313.267 M93.984,314.662
			c0-12.252-3.722-21.247-11.322-26.83c-3.567-2.637-7.754-4.343-12.872-5.118c-2.947-0.465-7.6-0.775-13.648-0.775
			c-3.412,0-6.669,0.155-9.926,0.466c-0.31,8.685-0.62,19.386-0.62,32.258c0,15.354,0.155,26.676,0.31,34.12
			c3.877,0.465,7.91,0.62,12.097,0.62c10.391,0,18.145-1.861,23.263-5.428C89.796,337.771,93.984,328.155,93.984,314.662z"/>
		<path fill="#00558A" d="M115.852,314.197c0-11.477-0.311-24.039-0.775-37.842c1.706,0.465,3.877,0.62,6.203,0.62
			c2.481,0,4.653-0.155,6.514-0.62c-0.465,11.941-0.775,25.279-0.775,40.168c0,11.941,0.311,24.504,0.775,37.687
			c-2.792-0.465-5.118-0.62-6.979-0.62c-1.551,0-3.567,0.155-5.894,0.62C115.541,342.578,115.852,329.24,115.852,314.197"/>
		<path fill="#00558A" d="M319.018,314.197c0-11.477-0.31-24.039-0.775-37.842c1.861,0.465,3.877,0.62,6.204,0.62
			c2.481,0,4.653-0.155,6.514-0.62c-0.465,11.941-0.775,25.279-0.775,40.168c0,11.941,0.31,24.504,0.775,37.687
			c-2.792-0.465-5.118-0.62-6.979-0.62c-1.551,0-3.567,0.155-5.893,0.62C318.708,342.578,319.018,329.24,319.018,314.197"/>
		<path fill="#00558A" d="M392.375,293.881c0,8.994-5.583,14.888-16.75,17.524c-1.241,0.311-1.861,0.62-1.861,0.931
			c0,0.155,0.775,0.465,2.326,0.62c6.824,0.621,11.942,2.947,15.354,6.979c2.947,3.412,4.342,7.444,4.342,12.097
			c0,8.375-3.722,14.578-11.321,18.766c-4.498,2.481-10.391,3.567-17.835,3.567c-0.62,0-2.792,0-6.514-0.155
			s-5.738-0.155-6.358-0.155c-2.327,0-5.583,0.155-10.081,0.466c0.621-9.926,1.086-21.093,1.086-33.499
			c0-16.905-0.311-31.794-1.086-44.511c2.016,0.155,6.049,0.31,12.097,0.31c9.305,0,15.664,0.155,19.076,0.465
			c4.653,0.465,8.22,1.551,10.546,3.257C390.048,283.645,392.375,288.143,392.375,293.881 M380.743,295.276
			c0-4.808-1.861-8.375-5.428-10.856c-3.102-2.171-7.134-3.257-12.097-3.257c-2.327,0-4.963,0.155-7.91,0.62
			c-0.155,4.498-0.31,9.306-0.31,14.269c0,3.257,0,8.064,0.155,14.578c5.894,0.311,10.391,0.155,13.338-0.62
			c3.877-0.775,6.824-2.481,8.84-5.118C379.658,302.1,380.743,298.998,380.743,295.276z M383.535,332.343
			c0-11.321-7.134-17.061-21.557-17.061c-1.396,0-3.567,0.155-6.669,0.311c-0.155,7.444-0.155,13.183-0.155,17.215
			c0,5.583,0.155,11.012,0.311,16.284c2.636,0.155,4.652,0.155,5.893,0.155c6.979,0,11.787-0.62,14.113-2.016
			C380.898,344.284,383.535,339.321,383.535,332.343z"/>
		<path fill="#00558A" d="M403.852,323.037c0-21.713-0.311-37.221-0.931-46.526c3.102,0.465,5.428,0.62,6.669,0.62
			c1.861,0,4.032-0.155,6.514-0.62c-0.62,9.771-1.086,22.643-1.086,38.462c0,7.909,0.311,13.492,0.775,17.06
			c0.62,4.498,2.017,8.064,4.188,10.546c1.861,2.326,4.343,4.032,7.6,5.273c3.257,1.24,6.824,2.016,10.391,2.016
			c3.877,0,7.6-0.775,10.856-2.326c5.894-2.791,9.615-7.444,11.321-14.113c1.241-5.428,1.861-13.183,1.861-23.263
			c0-15.664-0.465-26.985-1.551-33.81c2.016,0.465,3.722,0.62,5.272,0.62c1.552,0,3.103-0.155,4.963-0.62
			c-1.24,8.995-1.86,22.178-1.86,39.703c0,6.979-0.466,12.562-1.241,16.594c-1.24,6.049-3.412,10.856-6.824,14.269
			c-5.738,5.894-13.958,8.84-24.813,8.84c-12.718,0-21.868-3.722-27.451-11.321c-2.016-2.637-3.257-5.738-3.877-9.306
			C404.007,332.497,403.852,328.465,403.852,323.037"/>
		<path fill="#00558A" d="M499.696,310.32c0-8.221-0.155-17.371-0.155-27.606c-12.097,0.155-20.472,0.62-24.969,1.552
			c0.31-1.707,0.465-2.947,0.465-3.878c0-1.085-0.155-2.481-0.465-3.877c4.652,0.465,14.733,0.62,30.242,0.62
			c15.354,0,25.435-0.155,30.242-0.62c-0.311,1.396-0.465,2.636-0.465,3.877c0,0.931,0.154,2.326,0.465,3.878
			c-4.963-0.932-12.872-1.552-24.039-1.552c-0.155,10.392-0.155,18.146-0.155,23.264c0,24.969,0.311,41.099,0.775,48.232
			c-3.102-0.465-5.428-0.62-7.134-0.62c-1.861,0-3.877,0.155-5.894,0.62C499.386,343.044,499.696,328.311,499.696,310.32"/>
		<path fill="#00558A" d="M550.721,310.475c11.941,0.155,20.781-0.154,26.675-0.775c-0.31,1.706-0.465,2.947-0.465,3.878
			c0,0.465,0,1.085,0.155,1.705c0.155,0.931,0.155,1.552,0.155,1.861c-5.584-0.775-11.322-1.085-17.525-1.085
			c-2.326,0-5.428,0-9.15,0.154c-0.155,6.514-0.155,11.322-0.155,14.733c0,5.584,0.155,11.322,0.311,17.525
			c10.856,0,20.782-0.465,29.622-1.396c-0.311,1.706-0.466,2.946-0.466,3.877s0.155,2.171,0.466,3.567
			c-3.412-0.466-8.686-0.621-15.664-0.621c-5.894,0-14.578,0.155-26.055,0.621c0.775-10.392,1.24-23.729,1.24-40.323
			c0-15.199-0.31-27.605-0.931-37.532c5.273,0.465,13.027,0.621,23.574,0.621c6.823,0,12.562-0.155,17.06-0.621
			c-0.311,1.706-0.466,2.947-0.466,3.877c0,0.93,0.155,2.171,0.466,3.566c-5.273-0.93-11.167-1.396-17.99-1.396
			c-4.032,0-7.755,0-11.012,0.155c-0.155,2.947-0.155,7.289-0.155,12.873C550.721,301.635,550.721,306.442,550.721,310.475"/>
		<path fill="#00558A" d="M603.296,347.852c3.566,0.155,7.134,0.155,10.546,0.155c8.375,0,15.198-0.466,20.316-1.396
			c-0.311,1.396-0.465,2.637-0.465,3.723c0,1.396,0.154,2.637,0.465,3.877c-14.578-0.465-22.798-0.62-24.349-0.62
			c-4.498,0-10.701,0.155-18.766,0.62c0.62-10.856,1.085-24.504,1.085-41.099c0-11.631-0.31-23.884-1.085-36.756
			c2.481,0.465,4.497,0.62,6.203,0.62c2.017,0,4.498-0.155,7.134-0.62C603.605,295.586,603.296,319.47,603.296,347.852"/>
		<path fill="#00558A" d="M211.231,310.32c0-8.221,0-17.371-0.155-27.606c-12.097,0.155-20.472,0.62-24.97,1.552
			c0.311-1.707,0.465-2.947,0.465-3.878c0-1.085-0.155-2.481-0.465-3.877c4.653,0.465,14.733,0.62,30.243,0.62
			c15.354,0,25.435-0.155,30.242-0.62c-0.31,1.396-0.465,2.636-0.465,3.877c0,0.931,0.155,2.326,0.465,3.878
			c-4.963-0.932-12.873-1.552-24.039-1.552c-0.155,10.392-0.155,18.146-0.155,23.264c0,24.969,0.31,41.099,0.775,48.232
			c-3.102-0.465-5.428-0.62-7.134-0.62c-1.861,0-3.877,0.155-5.893,0.62C210.766,343.044,211.231,328.311,211.231,310.32"/>
		<path fill="#00558A" d="M309.247,352.97v1.396c-3.102-0.466-5.428-0.62-6.669-0.62s-3.877,0.154-8.064,0.62
			c-8.53-13.648-17.835-26.21-27.606-37.687h-2.946c0,14.578,0.31,27.141,0.775,37.687c-1.861-0.466-4.033-0.62-6.514-0.62
			c-1.706,0-3.722,0.154-5.894,0.62c0.62-12.407,0.931-26.676,0.931-43.115c0-6.358-0.311-17.99-0.931-34.74
			c2.947,0.155,6.204,0.311,9.771,0.311c0.621,0,2.947,0,6.669,0s5.894,0,6.514,0c6.359,0,11.167,0.465,14.423,1.241
			c2.636,0.62,4.963,1.861,6.979,3.567c3.877,3.102,5.738,7.599,5.738,13.492c0,6.979-2.792,12.252-8.375,15.664
			c-3.102,2.016-7.754,3.412-13.647,4.497c1.706,2.481,6.824,9.461,15.509,20.627C300.252,341.493,304.75,347.231,309.247,352.97
			 M290.481,296.207c0-9.926-6.514-14.889-19.386-14.889c-2.326,0-4.652,0.154-7.134,0.62c-0.155,3.412-0.155,8.53-0.155,15.354
			c0,2.016,0,4.807,0,8.84c0,3.877,0,6.048,0,6.668c1.706,0.155,3.722,0.155,6.048,0.155
			C283.658,312.181,290.481,306.753,290.481,296.207z"/>
		<path fill="#00558A" d="M765.519,268.136c0.931-2.016,6.979-1.241,6.824,1.085c-0.775,27.14-1.241,53.661-2.172,80.801
			c-0.465,1.551-2.016,1.396-5.428,1.396c-18.456-0.31-36.136-3.877-42.339-6.358c-1.861-0.62-0.311-2.171,0.31-4.497
			C737.603,316.059,750.785,292.949,765.519,268.136"/>
		<path fill="#00558A" d="M767.069,158.333c-0.31-1.861,0.155-3.412,1.861-3.877c5.272-0.155,5.583-0.155,9.926-0.155
			c0.775,0,2.016,1.706,1.861,2.792c-1.861,26.52-2.017,52.42-3.878,78.94c-0.465,2.171-3.102,1.861-3.566,0.155
			C770.637,209.667,769.861,185.008,767.069,158.333"/>
		<path fill="#00558A" d="M792.193,262.553c30.243,18.301,61.57,34.584,91.813,52.885c1.551,0.775,1.86,2.326-0.466,3.723
			c-10.546,8.375-28.381,18.455-43.425,22.487c-2.637,0.931-3.257,0.621-4.963-2.016c-14.733-24.97-33.034-48.388-47.768-73.202
			C785.99,263.328,789.867,261.157,792.193,262.553"/>
		<path fill="#00558A" d="M827.089,161.745c0.62-1.085,1.706-1.861,4.963-1.241c24.814,5.894,37.842,14.579,48.388,21.558
			c2.946,2.171,4.808,2.792-2.017,6.668c-30.087,17.525-59.243,34.74-89.331,52.11c-2.637,0.621-6.823-1.706-4.032-5.273
			C792.193,223.47,813.286,186.249,827.089,161.745"/>
		<path fill="#00558A" d="M794.676,254.022c42.184,0.621,85.144,1.086,127.327,1.706c3.878-0.155,3.878,1.085,2.637,7.134
			c-5.272,18.3-16.129,33.189-28.536,44.666c-1.396,1.706-3.102,4.497-7.289,1.086c-30.863-17.06-65.293-33.81-95.38-49.008
			C790.643,258.21,790.798,254.178,794.676,254.022"/>
		<path fill="#00558A" d="M660.679,188.73c32.568,19.231,64.517,35.05,97.085,54.281c4.188,1.396,3.412,4.963,0,4.498
			c-35.205-15.664-70.875-31.018-106.08-46.682c-3.877-0.931-3.567-2.171-2.792-3.722c3.412-3.722,3.102-4.188,7.755-7.754
			C657.577,188.265,659.283,187.334,660.679,188.73"/>
		<path fill="#00558A" d="M722.249,161.435c14.578,25.59,29.467,50.559,44.511,76.148c1.551,2.481-2.327,4.343-4.033,1.706
			c-17.99-23.884-35.825-47.922-54.126-71.496c-1.24-1.085-2.791-3.102,0.466-4.342c3.412-1.551,6.203-2.792,10.391-3.412
			C721.629,159.573,721.783,160.659,722.249,161.435"/>
		<path fill="#00558A" d="M883.852,194.003c6.203-3.722,6.824-5.428,11.166-1.396c16.284,14.268,28.382,36.291,30.708,49.163
			c0.465,3.412,2.171,5.894-4.343,5.118c-41.408,0.93-84.368,2.016-125.777,2.792c-4.963,0.465-5.272-4.498-1.705-5.894
			C823.521,227.192,854.074,210.753,883.852,194.003"/>
		<path fill="#00558A" d="M623.457,254.953c-1.086,0-2.016,1.551-2.016,1.861c-0.621,1.861-0.466,6.824,1.24,11.942
			c0.931,2.481-0.155,2.171,6.979,1.861c41.874-4.808,84.833-9.15,126.707-13.803c2.481,0,2.481-4.187-0.931-3.877
			C711.548,252.782,667.657,255.108,623.457,254.953"/>
		<path fill="#00558A" d="M664.711,312.025c32.259-16.904,59.398-32.413,91.657-49.318c4.653-3.257,6.669,1.085,2.947,2.947
			c-27.606,18.766-55.367,35.826-82.663,55.521c-3.722,2.172-4.032,2.172-6.514,0.931c-3.102-1.551-3.566-1.551-8.064-4.808
			C659.593,315.128,659.128,314.042,664.711,312.025"/>
		<path fill="#00558A" d="M777.615,349.402c-0.155-26.985-0.931-53.195-1.085-80.026c0-2.326,5.428-2.947,6.514-1.085
			c13.803,25.124,27.45,47.146,42.184,72.271c2.172,3.722,2.481,4.652-0.62,5.583c-10.081,2.946-27.916,4.808-41.563,5.428
			C780.407,351.884,777.926,351.264,777.615,349.402"/>
	</g>
</g>
</svg>
