<svg xmlns="http://www.w3.org/2000/svg" xmlns:xlink="http://www.w3.org/1999/xlink" viewBox="0 0 200 42"><defs><style>      .cls-1 {        fill: url(#Degradado_sin_nombre);      }      .cls-2 {        fill: url(#Degradado_sin_nombre_7);      }      .cls-3 {        fill: url(#Degradado_sin_nombre_6);      }      .cls-4 {        fill: url(#Degradado_sin_nombre_5);      }      .cls-5 {        fill: url(#Degradado_sin_nombre_8);      }      .cls-6 {        fill: url(#Degradado_sin_nombre_4);      }      .cls-7 {        fill: url(#Degradado_sin_nombre_9);      }      .cls-8 {        fill: url(#Degradado_sin_nombre_3);      }      .cls-9 {        fill: url(#Degradado_sin_nombre_2);      }      .cls-10 {        fill: url(#Degradado_sin_nombre_10);      }      .cls-11 {        fill: url(#Degradado_sin_nombre_11);      }    </style><linearGradient id="Degradado_sin_nombre" data-name="Degradado sin nombre" x1="15.6" y1="18.48" x2="226.96" y2="18.48" gradientTransform="translate(0 42) scale(1 -1)" gradientUnits="userSpaceOnUse"><stop offset=".21" stop-color="#f0ac1b"></stop><stop offset=".65" stop-color="#3db86e"></stop><stop offset=".96" stop-color="#3db8c6"></stop></linearGradient><linearGradient id="Degradado_sin_nombre_2" data-name="Degradado sin nombre 2" x1="15.6" y1="15.97" x2="226.96" y2="15.97" gradientTransform="translate(0 42) scale(1 -1)" gradientUnits="userSpaceOnUse"><stop offset=".21" stop-color="#f0ac1b"></stop><stop offset=".65" stop-color="#3db86e"></stop><stop offset=".96" stop-color="#3db8c6"></stop></linearGradient><linearGradient id="Degradado_sin_nombre_3" data-name="Degradado sin nombre 3" x1="15.6" y1="15.96" x2="226.96" y2="15.96" gradientTransform="translate(0 42) scale(1 -1)" gradientUnits="userSpaceOnUse"><stop offset=".21" stop-color="#f0ac1b"></stop><stop offset=".65" stop-color="#3db86e"></stop><stop offset=".96" stop-color="#3db8c6"></stop></linearGradient><linearGradient id="Degradado_sin_nombre_4" data-name="Degradado sin nombre 4" x1="15.6" y1="15.96" x2="226.96" y2="15.96" gradientTransform="translate(0 42) scale(1 -1)" gradientUnits="userSpaceOnUse"><stop offset=".21" stop-color="#f0ac1b"></stop><stop offset=".65" stop-color="#3db86e"></stop><stop offset=".96" stop-color="#3db8c6"></stop></linearGradient><linearGradient id="Degradado_sin_nombre_5" data-name="Degradado sin nombre 5" x1="15.6" y1="18.5" x2="226.96" y2="18.5" gradientTransform="translate(0 42) scale(1 -1)" gradientUnits="userSpaceOnUse"><stop offset=".21" stop-color="#f0ac1b"></stop><stop offset=".65" stop-color="#3db86e"></stop><stop offset=".96" stop-color="#3db8c6"></stop></linearGradient><linearGradient id="Degradado_sin_nombre_6" data-name="Degradado sin nombre 6" x1="15.6" y1="15.96" x2="226.96" y2="15.96" gradientTransform="translate(0 42) scale(1 -1)" gradientUnits="userSpaceOnUse"><stop offset=".21" stop-color="#f0ac1b"></stop><stop offset=".65" stop-color="#3db86e"></stop><stop offset=".96" stop-color="#3db8c6"></stop></linearGradient><linearGradient id="Degradado_sin_nombre_7" data-name="Degradado sin nombre 7" x1="15.6" y1="18.85" x2="226.96" y2="18.85" gradientTransform="translate(0 42) scale(1 -1)" gradientUnits="userSpaceOnUse"><stop offset=".21" stop-color="#f0ac1b"></stop><stop offset=".65" stop-color="#3db86e"></stop><stop offset=".96" stop-color="#3db8c6"></stop></linearGradient><linearGradient id="Degradado_sin_nombre_8" data-name="Degradado sin nombre 8" x1="15.6" y1="16.33" x2="226.96" y2="16.33" gradientTransform="translate(0 42) scale(1 -1)" gradientUnits="userSpaceOnUse"><stop offset=".21" stop-color="#f0ac1b"></stop><stop offset=".65" stop-color="#3db86e"></stop><stop offset=".96" stop-color="#3db8c6"></stop></linearGradient><linearGradient id="Degradado_sin_nombre_9" data-name="Degradado sin nombre 9" x1="15.6" y1="18.85" x2="226.96" y2="18.85" gradientTransform="translate(0 42) scale(1 -1)" gradientUnits="userSpaceOnUse"><stop offset=".21" stop-color="#f0ac1b"></stop><stop offset=".65" stop-color="#3db86e"></stop><stop offset=".96" stop-color="#3db8c6"></stop></linearGradient><linearGradient id="Degradado_sin_nombre_10" data-name="Degradado sin nombre 10" x1="15.6" y1="16.33" x2="226.96" y2="16.33" gradientTransform="translate(0 42) scale(1 -1)" gradientUnits="userSpaceOnUse"><stop offset=".21" stop-color="#f0ac1b"></stop><stop offset=".65" stop-color="#3db86e"></stop><stop offset=".96" stop-color="#3db8c6"></stop></linearGradient><linearGradient id="Degradado_sin_nombre_11" data-name="Degradado sin nombre 11" x1="15.6" y1="30.45" x2="226.96" y2="30.45" gradientTransform="translate(0 42) scale(1 -1)" gradientUnits="userSpaceOnUse"><stop offset=".21" stop-color="#f0ac1b"></stop><stop offset=".65" stop-color="#3db86e"></stop><stop offset=".96" stop-color="#3db8c6"></stop></linearGradient></defs><g><g id="Capa_1"><g id="Capa_1-2" data-name="Capa_1"><g><path class="cls-1" d="M74.93,11.91h4.08v14.13c0,2.75,2.29,5.05,5.05,5.05s5.1-2.3,5.1-5.05-2.29-5.07-5.1-5.07c-1.12,0-2.16.37-2.98.99v-4.5c.97-.37,1.91-.49,2.98-.49,5.05,0,9.12,4.06,9.12,9.08s-4.08,9.08-9.12,9.08-9.12-4.08-9.12-9.08v-14.13h-.01Z"></path><path class="cls-9" d="M96.91,26.01c0-5.05,4.1-9.05,9.15-9.05v4.03c-2.78,0-5.07,2.25-5.07,5.02v9.1h-4.08v-9.1Z"></path><path class="cls-8" d="M117.19,16.96c5.02,0,9.1,4.06,9.1,9.08v9.08h-4.05v-9.08c0-2.8-2.29-5.07-5.05-5.07s-5.1,2.28-5.1,5.07,2.29,5.05,5.1,5.05c1.09,0,2.14-.37,2.96-.99v4.5c-.92.32-1.94.52-2.96.52-5.07,0-9.15-4.08-9.15-9.08s4.08-9.08,9.15-9.08Z"></path><path class="cls-6" d="M131.01,35.12v-10.12c0-4.43,3.65-8.04,8.1-8.04s8.13,3.61,8.13,8.04v10.12h-4.05v-10.12c0-2.2-1.81-4.03-4.08-4.03s-4.03,1.83-4.03,4.03v10.12h-4.08,0Z"></path><path class="cls-4" d="M160.12,16.96c1.07,0,2.01.12,2.98.49v4.5c-.82-.62-1.86-.99-2.98-.99-2.81,0-5.1,2.28-5.1,5.07s2.29,5.05,5.1,5.05,5.05-2.3,5.05-5.05v-14.13h4.08v14.13c0,5-4.1,9.08-9.12,9.08s-9.15-4.08-9.15-9.08,4.1-9.08,9.15-9.08h-.01Z"></path><path class="cls-3" d="M177.03,29.33c0,.96.77,1.76,1.74,1.76s1.77-.79,1.77-1.76c0-.62-.35-1.11-.82-1.48-1.37-.96-6.04-2-6.04-5.84,0-2.77,2.31-5.05,5.1-5.05s5.1,2.28,5.1,5.05h-4.03c0-.57-.5-1.04-1.07-1.04s-1.02.47-1.02,1.04c0,.42.17.74.55.92,2.83,1.51,6.29,2.23,6.29,6.41,0,3.19-2.61,5.79-5.82,5.79s-5.79-2.6-5.79-5.79h4.05-.01Z"></path><g><path class="cls-2" d="M18.66,11.55v6.11c1.19-.67,2.56-1.06,4.05-1.06,4.47,0,8.1,3.61,8.1,8.04v10.12h-4.03v-10.12c0-2.18-1.84-4.01-4.08-4.01s-4.05,1.83-4.05,4.01v10.12h-4.08V11.55h4.09Z"></path><path class="cls-5" d="M43.67,16.59c5.05,0,9.12,4.06,9.12,9.08s-4.08,9.08-9.12,9.08-9.12-4.06-9.12-9.08,4.1-9.08,9.12-9.08ZM43.67,30.72c2.78,0,5.07-2.28,5.07-5.05s-2.29-5.05-5.07-5.05-5.05,2.28-5.05,5.05,2.26,5.05,5.05,5.05Z"></path><path class="cls-7" d="M60.57,11.55v23.21h-4.05V11.55h4.05Z"></path><path class="cls-10" d="M69.37,16.59v18.16h-4.08v-18.16h4.08Z"></path></g><path class="cls-11" d="M69.92,8.12h-1.72c-1.9,0-3.44,1.54-3.44,3.43v1.36l-.61.61c-.34.34-.34.88,0,1.21.17.17.39.25.61.25s.44-.08.61-.25l.61-.61h1.37c1.9,0,3.44-1.54,3.44-3.43v-1.71c0-.47-.39-.86-.86-.86h-.01ZM69.06,10.69c0,.94-.77,1.71-1.72,1.71h-.86v-.86c0-.94.77-1.71,1.72-1.71h.86v.86Z"></path></g></g></g></g></svg>